<svg width="40" height="40" viewBox="0 0 40 40" fill="none" xmlns="http://www.w3.org/2000/svg">
<path d="M39.8 11.8205C39.7 9.71689 39.4 8.21428 38.9 6.91202C38.4 5.60975 37.6 4.40766 36.6 3.40592C35.6 2.40418 34.4 1.60279 33.1 1.10192C31.8 0.601045 30.4 0.300522 28.2 0.200348C26 0 25.3 0 19.9 0C14.5 0 13.8 0 11.7 0.100174C9.60001 0.200348 8.10001 0.500871 6.80001 1.00174C5.50001 1.50261 4.30001 2.30401 3.3 3.30575C2.3 4.30749 1.5 5.50958 1 6.81184C0.5 8.11411 0.199999 9.51654 0.0999985 11.7204C-1.52737e-06 13.824 0 14.5253 0 20.0348C0 25.5444 -1.52737e-06 26.1455 0.0999985 28.2491C0.199999 30.3528 0.5 31.8554 1 33.1576C1.5 34.4599 2.3 35.662 3.3 36.6637C4.30001 37.6655 5.50001 38.4669 6.80001 38.9677C8.10001 39.4686 9.50001 39.7691 11.7 39.8693C13.8 39.9695 14.5 39.9695 19.9 39.9695C25.3 39.9695 26 39.9695 28.1 39.8693C30.2 39.7691 31.7 39.4686 33 38.9677C35.7 37.966 37.8 35.7622 38.9 33.0575C39.4 31.7552 39.7 30.3528 39.8 28.1489C39.9 26.0453 39.9 25.3441 39.9 19.9347C39.9 14.5252 39.9 13.9242 39.8 11.8205ZM36.2 28.1489C36.1 30.1524 35.8 31.1542 35.5 31.8554C34.8 33.5583 33.4 34.9608 31.7 35.662C31 35.9625 29.9 36.263 28 36.3632C25.9 36.4634 25.3 36.4634 19.9 36.4634C14.6 36.4634 13.9 36.4634 11.8 36.3632C9.8 36.263 8.8 35.9625 8.1 35.662C7.2 35.3615 6.40001 34.8606 5.80001 34.1594C5.10001 33.5583 4.60001 32.7569 4.30001 31.8554C4.00001 31.1542 3.7 30.0522 3.6 28.1489C3.5 26.0453 3.5 25.4442 3.5 20.0348C3.5 14.7256 3.5 14.0244 3.6 11.9207C3.7 9.91724 4.00001 8.9155 4.30001 8.21428C4.60001 7.31271 5.10001 6.51132 5.80001 5.91027C6.40001 5.20906 7.2 4.70818 8.1 4.40766C8.8 4.10714 9.9 3.80662 11.8 3.70644C13.9 3.60627 14.5 3.60627 19.9 3.60627C25.2 3.60627 25.9 3.60627 28 3.70644C30 3.80662 31 4.10714 31.7 4.40766C32.6 4.70818 33.4 5.20906 34 5.91027C34.7 6.51132 35.2 7.31271 35.5 8.21428C35.8 8.9155 36.1 10.0174 36.2 11.9207C36.3 14.0244 36.3 14.6254 36.3 20.0348C36.3 25.4442 36.3 26.0453 36.2 28.1489Z" fill="#0D0E1D"/>
<g clip-path="url(#clip0)">
<path d="M19.1999 10.8184C13.4999 10.8184 8.8999 15.4264 8.8999 21.1363C8.8999 26.8462 13.4999 31.4542 19.1999 31.4542C24.8999 31.4542 29.4999 26.8462 29.4999 21.1363C29.3999 15.4264 24.7999 10.8184 19.1999 10.8184ZM19.1999 27.7477C15.4999 27.7477 12.4999 24.7425 12.4999 21.0361C12.4999 17.3297 15.4999 14.3244 19.1999 14.3244C22.8999 14.3244 25.8999 17.3297 25.8999 21.0361C25.8999 24.7425 22.8999 27.7477 19.1999 27.7477Z" fill="#0D0E1D"/>
<path d="M32.3 10.4178C32.3 11.7201 31.2 12.822 29.9 12.822C28.6 12.822 27.5 11.7201 27.5 10.4178C27.5 9.11558 28.5 8.01367 29.9 8.01367C31.2 8.01367 32.3 9.11558 32.3 10.4178Z" fill="#0D0E1D"/>
</g>
<defs>
<clipPath id="clip0">
<rect width="23.4" height="23.4407" fill="white" transform="translate(8.8999 8.01367)"/>
</clipPath>
</defs>
</svg>
