<svg width="40" height="40" viewBox="0 0 40 40" fill="none" xmlns="http://www.w3.org/2000/svg">
<path d="M37.1 0H2.9C1.3 0 0 1.3 0 2.9V37.1C0 38.7 1.3 40 2.9 40H37.1C38.7 40 40 38.7 40 37.1V2.9C40 1.3 38.7 0 37.1 0ZM13.2 32H7.5V15H13.2V32ZM10.3 12.6C8.4 12.6 7.1 11.3 7.1 9.7C7.1 8 8.4 6.8 10.3 6.8C12.2 6.8 13.4 8.1 13.5 9.7C13.5 11.3 12.3 12.6 10.3 12.6ZM33.6 32H27.9V22.9C27.9 20.6 27.1 19 25 19C23.4 19 22.5 20.1 22.1 21.1C22 21.5 22 22 22 22.5V32H16.3C16.3 32 16.4 16.6 16.3 15H22V17.4C22.8 16.2 24.1 14.6 27.1 14.6C30.8 14.6 33.6 17 33.6 22.3V32Z" fill="#0D0E1D"/>
</svg>
