<svg xmlns="http://www.w3.org/2000/svg" viewBox="0 0 807.64 434.6"><defs><style>.cls-1{fill:none;stroke:#8d8d8d;stroke-miterlimit:10;stroke-width:0.75px;}</style></defs><title>Recurso 1</title><g id="Capa_2" data-name="Capa 2"><g id="Capa_1-2" data-name="Capa 1"><path class="cls-1" d="M31.27,407.06V60.17s.44-15,22.85-16.25c.42,0,.83,0,1.24,0,3,.1,14.8,1,20.13,8.19a12.88,12.88,0,0,1,2.38,7.63V208.64a13.14,13.14,0,0,0,.45,3.48c1.35,5,6.51,17.35,25.32,24.6.35.13.7.25,1,.35C114.2,239.9,147.77,249.71,177,226a13.71,13.71,0,0,0,1.59-1.55c3.6-4.09,6.67-6.75,7.78-15.84.67-4.57.36-10.12,10.24-14.73a12,12,0,0,1,1.51-.58c5.68-1.82,13.65-4.25,25.14.46a13.8,13.8,0,0,1,1.72.86c3.47,2.07,6.69,3.94,8,9.58a13,13,0,0,1,.3,2.85v99.68s-.17,16.28,23.31,26.34c.34.14.69.27,1,.39,11.73,4,26.86,9.72,55.3.92a13.75,13.75,0,0,0,1.51-.57c6.89-3,20.23-8,25.87-22.9a11.94,11.94,0,0,0,.67-2.82c.27-2.24.38-4.68.38-4.68V57.34a13,13,0,0,1,.91-4.86c1.41-3.52,4.95-8.92,13.69-11.2a45.14,45.14,0,0,1,15.55-.52,12.32,12.32,0,0,1,2.15.47,31.93,31.93,0,0,1,9.23,4.21,13.23,13.23,0,0,1,5.4,10.42c0,.22,0,.35,0,.35V351.58a13.64,13.64,0,0,0,.12,1.81c.38,2.77,1.69,10.69,4.62,13.51a76.32,76.32,0,0,0,8.15,7.82s11.87,12,45,11.75c.35,0,.71,0,1.06-.05,7.29-.61,25.75-2,38.37-14.25,5.73-5.49,10-8.94,10.84-17.67,0-.41,0-.84,0-1.25V253.2a13,13,0,0,1,1.78-6.7c2.26-3.76,7.34-8.59,18.69-9.69q.47,0,.93-.06c4.16-.14,13.56-.95,22.2,7.2a11.3,11.3,0,0,1,1.64,2c.89,1.33,1.53,2.89,1.87,7.37,0,.34,0,.69,0,1V402.11a13.54,13.54,0,0,0,.16,2.11,22.59,22.59,0,0,0,7.08,13.14c4.54,4.21,12.34,14.64,44.43,16.85,6.82.17,30.27-1.07,45.36-13.85.34-.29.67-.61,1-.93,4.42-4.54,10.75-10.61,10.43-23.34v-197s-.09-6.05,8-10.06a11.3,11.3,0,0,1,1.35-.56c6.81-2.45,19.35-7.56,32.64,2.94a13.12,13.12,0,0,1,4.94,8.19,9.12,9.12,0,0,1,.12,2.05c0,3.06,2.13,8.34,2.81,9.78,1.24,2.32,2.86,9.1,26.11,19a26.35,26.35,0,0,0,4.58,1.49c9.43,2.1,35.84,5.83,59.09-8.51.32-.2.84-.55,1.14-.78,4.22-3.17,13.66-8.71,14.42-24,0-.32,0-.64,0-1-.32-17.52,0-197.37,0-197.37"/><path class="cls-1" d="M23.18,406.89V60.58a13.38,13.38,0,0,1,1.4-6C26.76,50.23,32,43.2,44,40.51c4.34-.77,10.34-1.15,10.34-1.15S73.52,37.51,83,50.85c2,3,1.89,3.22,2.42,5.3a53.21,53.21,0,0,1,.45,7.21v144.9s-.08,9,8.65,16.39c.3.25.61.49.93.71,6.69,4.78,12.73,8.45,24.45,10.47.34.06.69.1,1,.13,8.81.85,19.32,2.22,37.85-4.86a12.87,12.87,0,0,0,2.29-1.14c7.41-4.64,16.5-11.18,17.47-22.13,1-6.55,1.7-15.06,19.23-20.17,6.68-1.67,23.12-5.14,37.72,7.11a13.1,13.1,0,0,1,1.65,1.68,14.23,14.23,0,0,1,3.51,7.6,13.46,13.46,0,0,1,.22,2.9c-.32,8.9.22,24.88.22,24.88l-.25,27.49.08,31.11c0,.24,0,.47,0,.71-.11,2.37-.73,16.77,1.3,20.43,2.53,5.06,5.64,11.7,19.49,17.69.28.13.56.24.84.34,7.51,2.7,21.63,6.89,37.49,3.32.43-.1.85-.22,1.27-.36,11-3.59,26.17-9.43,29.76-19.37,1-2.3,1.62-4.25,2-5.52a13.27,13.27,0,0,0,.55-2.94l.2-2.51c0-.35,0-.69,0-1V55.9a13.14,13.14,0,0,1,.88-4.81,19.7,19.7,0,0,1,7.91-9.37c4.66-2.65,12.76-7.92,30.15-5.88.4,0,.81.11,1.21.2,6.26,1.3,16.52,3.73,20.78,14.3a27,27,0,0,1,1.21,6,13.65,13.65,0,0,1,.06,1.57l-.05,2.34V352.66a13.69,13.69,0,0,0,.07,1.43c.23,2.05,1.05,7.44,3.57,10.17,3.92,4.26,9.25,10.58,22.51,14.67a12,12,0,0,0,1.46.36c12,2.3,17.22,4.47,36.88,0a13.58,13.58,0,0,0,1.65-.49c7.71-2.87,20.11-8.63,25.13-19.75a14,14,0,0,0,1-3.61,46.94,46.94,0,0,0,.52-6.39V254a13.34,13.34,0,0,1,.79-4.56c1.1-3,3.47-8.08,7.86-11.25a13.35,13.35,0,0,1,2.4-1.33c6.3-2.75,10.23-5.22,24.44-4.79a12.47,12.47,0,0,1,1.84.19,94.15,94.15,0,0,1,10.8,2.65,13,13,0,0,1,1.7.66c3,1.41,12.48,6.43,12.55,13.81.17,6.64,0,34,0,34V398.48c0,.43,0,.86.06,1.3a39.53,39.53,0,0,0,2.12,9.62,13.27,13.27,0,0,0,2.83,4.31c4.7,4.85,17,15.4,34.9,15.4,8.6.17,30.05.93,44.17-12.6,4.43-4.34,8.94-10.89,8.77-18.55V201.62A19.49,19.49,0,0,1,651,188.13a13.21,13.21,0,0,1,2.56-1.63c8.42-4.14,16.69-8.87,36.36-4.1a13,13,0,0,1,2.52.9c5.34,2.51,9.35,4.46,12.59,11a13.1,13.1,0,0,1,1.28,4.67c.11,1.45.29,2.83.43,3.81a13,13,0,0,0,.68,2.68l.8,2.18a13.32,13.32,0,0,0,1.86,3.44A45.89,45.89,0,0,0,721.61,222a14,14,0,0,0,1.85.94c9,3.74,18.08,6.62,33.14,6.17a11.89,11.89,0,0,0,1.58-.14c10.75-1.58,22.23-3.23,30.88-11.37,6.72-7,9.31-9.58,10.39-19.1a14.33,14.33,0,0,0,.07-1.47V.43"/><path class="cls-1" d="M15.6,407.15V60.23s.61-11,7.5-15.51a42,42,0,0,1,20.51-9.4C52.84,34,68.16,32,83.44,41.91c3.11,2.47,7.49,5.66,9.45,13.07.34,5.36,0,147.15,0,147.15v5.2a22.39,22.39,0,0,0,8.46,15.1c8.37,5.2,18.07,11,40.6,8.36,7-1.47,23.55-6.51,27.32-17.75,1.08-4.08,1.4-5.26,1.4-5.26s1.12-8.75,4.41-12.83c1.69-1.85,8.17-10.31,27.25-13.31,16-.83,20.94-.83,34.92,6.45,8.62,6.57,10.79,10,11.1,18.38v97a19.34,19.34,0,0,0,4.83,13c.24.26.48.51.73.76,5.1,4.47,19.4,13.6,34.27,11.81,11.26-1.08,19.42-3.28,28.39-9.12a15.06,15.06,0,0,0,3.21-2.8A22,22,0,0,0,325.52,302c.13-8.56,0-224,0-245.07a15.72,15.72,0,0,1,.59-4.37c1-3.65,3.71-10.11,10.26-13.84,4.72-2.59,12.42-8.64,31.36-8.47,2.89,0,21.23.55,31.51,13.47a19.84,19.84,0,0,1,4.27,10.52,52.6,52.6,0,0,1,.18,5.71v293s-.69,8.85,8.76,15.06c11.32,6.89,19.79,9.32,32.09,8.68,10.29-.23,25.8-5.09,31.17-12.33,5.19-7.57,5.76-9,5.76-17.12V251.15s0-9.83,10.51-16.21c4.09-2.37,17.11-8.81,31.09-7.92,7.34.77,17.81,1.47,28.91,10.34,3.71,3.7,6,7.09,7.09,11.87.06,4.09,0,151.92,0,151.92s.25,8.42,10.15,15.83c6.7,3.83,15.64,8.11,29.87,7.47,8.87-.77,22.47-1.73,32.55-13.22,2.68-4.21,4.22-6.19,4.73-11.8V199.91a9,9,0,0,1,.36-2.53c1.07-3.64,5-12.93,18.1-18.06,6.22-2.13,24.09-7.15,40.34-.68,6.3,3.06,14.47,6.13,18.05,16.08.76,4.09.85,11.15,4.42,15.58,3.58,3.83,11.66,11.06,23.24,12.68,11.15,1.53,24.17,2.3,37-5,7.06-4.51,10.64-8.09,13.87-16.26V.64"/><path class="cls-1" d="M8,407.15V60.85a13.9,13.9,0,0,1,.08-1.44c.33-2.93,1.95-12.9,8.76-17.56,6.26-4.53,15.9-11.62,34.22-12.25,8.43-.25,23.47-1.54,41,11a12.72,12.72,0,0,1,2.13,2c2.34,2.66,6,7.44,7,16.51a12.79,12.79,0,0,1,.08,1.52V207.74s-.25,7.73,5.94,11.49c4.66,3.07,15.7,8.68,25.53,7.6,9.5-1.27,24.22-3.23,29.26-15.23a12.61,12.61,0,0,0,.88-3.79c.31-3.75-.08-5.81,1.58-9.19,1.09-1.85,13-21.13,40.85-22.41,10.49.06,30.07-.66,44.93,15.12a13.91,13.91,0,0,1,2.22,3.06,31.62,31.62,0,0,1,3.83,16.53c0,.33,0,.66,0,1v92.25s-.83,9.72,10.72,15.28c5.14,2.38,13.85,6,24.81,4.55.4-.05.79-.13,1.19-.22,7.43-1.68,17.25-3.19,23.24-13a12.8,12.8,0,0,0,1.83-6.5c.14-8.88-.13-31.46-.13-31.46V55.32s-.23-10.13,7.85-16c4-2.9,7.09-5,9.26-6.33a33.38,33.38,0,0,1,7.23-3.4c5.84-1.94,17.41-5.18,27.13-4.27,12.49,1.78,16.32,2.64,26.54,7.58a14.06,14.06,0,0,1,3,2c6.69,5.76,11.45,11.72,11.83,17V352.26s2.47,10.91,9.87,14.1c5.87,2.81,11.3,5.68,22.41,5.49,6.89-.64,20.23-2.36,26.87-11,1.79-2.87,4-6.58,3.76-12.19-.12-6.64,0-98.49,0-98.49s1.92-11.81,10.92-17.49c7.47-4.47,18.57-10.15,30.64-10.41,7-.19,25.4-.83,39.19,9.13,6.45,5.49,11.1,11,12.19,17.3V400.17s.16,8.54,7.88,13c7.92,4.18,22.06,10.1,40.4,2.91,4.33-2.33,9.63-5.54,12.32-10.79a12.65,12.65,0,0,0,1.34-5.37c.4-11.1-.13-54.7-.13-54.7V201.49a17.54,17.54,0,0,1,.54-4.39,27.28,27.28,0,0,1,11.18-15.91c7.92-4.53,14.45-9.7,31.47-10.3,10.47-.08,23.32-.59,40.34,10.56,4.26,3.74,9.53,9.27,9.79,17.44.59,4.51,2.55,11.49,8.93,14.73,6.64,3.32,16.17,6.25,24.68,5.4,7.75-.85,25.66-5.15,28-15.55.38-9.64.57-60.77.57-60.77V.51"/><path class="cls-1" d="M.38,407.15V58.05a8.32,8.32,0,0,1,.06-1.12,29.43,29.43,0,0,1,11.1-18.82,10,10,0,0,1,.85-.6c5-3.24,18.68-13.17,39.82-13.34,9.95.17,27.19.57,40.78,10.09,6,4.4,14.17,10.34,15.26,20.23.45,5.62,0,152.57,0,152.57s-.16,7.54,11.25,12.7a8.64,8.64,0,0,0,1.4.5c6.33,1.64,17.65,2.61,23.73-.87,5.23-2.78,9.51-5.26,10.75-12.17a7,7,0,0,0,.1-.8c.5-5.46,2.76-12.16,4.57-14.12,5.45-7.6,25.5-19.66,45-20.94,14.55-1.15,27.83.07,43.15,9.7,0,0,14,8.95,15.41,20.51a10.37,10.37,0,0,1,.06,1.12V303.57s-.28,10.9,12.17,13.71c4.33,1.17,15.79,4.51,28.23-3a8.77,8.77,0,0,0,2.16-1.87c3.29-3.85,4.22-5.8,4.39-13.05.07-8.87,0-181.13,0-181.13v-63a18,18,0,0,1,1-5.9C313.56,43.89,319,33.79,334,27c.23-.11.47-.2.71-.29,6.73-2.45,16-6.19,26-6h.5c6.59-.35,30.28-1.05,48,14.24A10.61,10.61,0,0,1,410.31,36c5.2,6.07,6.69,8,7.92,12.63a22.24,22.24,0,0,1,.7,5.56V351.23s-.64,10.66,15.81,15a9.92,9.92,0,0,0,1.54.27c7.4.62,21.41.68,26.93-7.78a7.87,7.87,0,0,0,.75-1.51,29.81,29.81,0,0,0,2.12-13.06c-.13-5.43,0-93.34,0-93.34s.51-20.29,30.33-29.86c.2-.07.4-.12.61-.18,9.34-2.33,29-8.21,55.94,3.06a9.79,9.79,0,0,1,1.17.58c10.68,6.18,18.6,12.53,20.29,25.07a9.31,9.31,0,0,1,.08,1.29V398.34s-1,13.56,17.61,16a7.45,7.45,0,0,0,.95.08c1.91.06,4.25.1,6.74,0,12-.65,21-4.89,21.14-23.25a.85.85,0,0,0,0-.16c0-.13,0-.27,0-.41V197.64a9.62,9.62,0,0,1,.24-2.14c.78-3.25,3.7-12.45,12.74-17.5,11.06-6.19,32.93-18.84,67.08-8.51.27.08.53.18.79.28,10.09,4,23.54,9.25,27.83,26.19a9.65,9.65,0,0,1,.27,1.93c.19,4.55-.11,8.82,7.8,12.73.26.12.52.24.79.34,6.8,2.61,21.17,6.24,32.72-2.48a9.48,9.48,0,0,0,2.67-3.1c1.8-3.35,2.14-7,2.48-11.11,0-.26,0-.53,0-.8V0"/></g></g></svg>