<svg xmlns="http://www.w3.org/2000/svg" xmlns:xlink="http://www.w3.org/1999/xlink" viewBox="0 0 1912.81 3259.09"><defs><style>.cls-1,.cls-3,.cls-4,.cls-5,.cls-6,.cls-7{fill:none;}.cls-2{clip-path:url(#clip-path);}.cls-3{stroke:#343953;}.cls-3,.cls-4,.cls-5,.cls-6,.cls-7{stroke-miterlimit:10;}.cls-4{stroke:#434861;}.cls-5{stroke:#52576f;}.cls-6{stroke:#60667d;}.cls-7{stroke:#6f768c;}</style><clipPath id="clip-path" transform="translate(0 -2515.18)"><rect class="cls-1" x="564.71" width="1440" height="7535"/></clipPath></defs><title>Recurso 1</title><g id="Capa_2" data-name="Capa 2"><g id="Capa_1-2" data-name="Capa 1"><g class="cls-2"><path class="cls-3" d="M1685.35,2531.33c-35,0-715.12,629.39-412.74,1276.72,31.1,80.91,110.26,250.56,151.73,324.47C1624.93,4490.89,1638.83,4741,1176.51,4993c-93.21,50.79-204.78,100.2-336,151.41C526,5267.14,268.06,5335.63.12,5402.88" transform="translate(0 -2515.18)"/><path class="cls-4" d="M1742.21,2527.42c-52.48,0-817,631.23-405.36,1311.3,41.4,85,122.36,248.91,166.7,327.65,204.6,364.42,204.07,630.61-254.06,894.12-95.43,54.9-209.12,108-342.35,162-367.78,149-623.77,213.31-861.94,273.08" transform="translate(0 -2515.18)"/><path class="cls-5" d="M1799.08,2523.5c-70,0-919,633.08-398,1345.9,51.71,89.06,134.46,247.25,181.66,330.81,208.62,370.48,193.83,653.09-260.27,927.83-97.63,59.06-213.39,116.09-348.74,172.64C553,5476.52,298.67,5536,90.27,5588.33" transform="translate(0 -2515.18)"/><path class="cls-6" d="M1856,2519.59c-87.47,0-1020.9,634.91-390.62,1380.48,62,93.14,146.55,245.59,196.63,334,212.63,376.52,183.77,675.87-266.5,961.52-99.78,63.31-217.59,124.29-355.12,183.27-473.6,203.11-726.37,257.37-905,302.2" transform="translate(0 -2515.18)"/><path class="cls-7" d="M1912.81,2515.68c-105,0-1122.81,636.75-383.24,1415.07,72.32,97.21,158.65,243.93,211.6,337.15,216.64,382.58,173.88,699-272.73,995.23-101.9,67.6-221.75,132.57-361.5,193.88-526.19,230.84-777.66,279.41-926.52,316.77" transform="translate(0 -2515.18)"/></g></g></g></svg>